<mxfile host="app.diagrams.net" agent="Mozilla/5.0 (Macintosh; Intel Mac OS X 10_15_7) AppleWebKit/605.1.15 (KHTML, like Gecko) Version/18.1.1 Safari/605.1.15" version="25.0.1">
  <diagram name="Страница — 1" id="l5UAVurz0LgURboe4OBJ">
    <mxGraphModel dx="1207" dy="718" grid="1" gridSize="10" guides="1" tooltips="1" connect="1" arrows="1" fold="1" page="1" pageScale="1" pageWidth="1654" pageHeight="1169" math="0" shadow="0">
      <root>
        <mxCell id="0" />
        <mxCell id="1" parent="0" />
        <mxCell id="0EllpM49SObqUhI23Tt0-70" value="" style="endArrow=classic;html=1;rounded=1;strokeColor=default;align=center;verticalAlign=middle;arcSize=30;fontFamily=Helvetica;fontSize=11;fontColor=default;labelBackgroundColor=default;curved=0;entryX=0.5;entryY=1;entryDx=0;entryDy=0;" edge="1" parent="1" target="yMx2xB417AtkxRecwNmC-69">
          <mxGeometry width="50" height="50" relative="1" as="geometry">
            <mxPoint x="1060" y="2160" as="sourcePoint" />
            <mxPoint x="1040" y="1970" as="targetPoint" />
          </mxGeometry>
        </mxCell>
        <mxCell id="GalNy2QHqwmjgTH99Cij-1" value="&lt;div style=&quot;text-align: left; line-height: 120%;&quot;&gt;&amp;nbsp; USED AT:&lt;/div&gt;&lt;div style=&quot;line-height: 120%;&quot;&gt;Skoltech Systems Engineering course&lt;span style=&quot;display: inline;&quot;&gt;&lt;/span&gt;&lt;span style=&quot;display: inline;&quot;&gt;&lt;/span&gt;&lt;span style=&quot;display: inline;&quot;&gt;&lt;/span&gt;&lt;/div&gt;" style="rounded=0;whiteSpace=wrap;html=1;fontFamily=Crimson Text;fontSource=https%3A%2F%2Ffonts.googleapis.com%2Fcss%3Ffamily%3DCrimson%2BText;fontSize=32;spacingRight=10;" parent="1" vertex="1">
          <mxGeometry width="300" height="160" as="geometry" />
        </mxCell>
        <mxCell id="GalNy2QHqwmjgTH99Cij-2" value="&lt;div style=&quot;text-align: right; line-height: 120%;&quot;&gt;AUTHOR: Fatykhoph Denis &amp;nbsp; &amp;nbsp; &amp;nbsp; &amp;nbsp; &amp;nbsp; &amp;nbsp;&lt;font style=&quot;font-size: 20px;&quot;&gt;DATE: 02.12.2024&lt;/font&gt;&lt;/div&gt;&lt;div style=&quot;line-height: 120%;&quot;&gt;PROJECT: Robotic Sorting System&lt;/div&gt;" style="rounded=0;whiteSpace=wrap;html=1;fontFamily=Crimson Text;fontSource=https%3A%2F%2Ffonts.googleapis.com%2Fcss%3Ffamily%3DCrimson%2BText;fontSize=32;spacingRight=10;align=left;" parent="1" vertex="1">
          <mxGeometry x="300" width="600" height="160" as="geometry" />
        </mxCell>
        <mxCell id="GalNy2QHqwmjgTH99Cij-4" value="&lt;div style=&quot;text-align: left; line-height: 120%;&quot;&gt;Context&lt;/div&gt;" style="rounded=0;whiteSpace=wrap;html=1;fontFamily=Crimson Text;fontSource=https%3A%2F%2Ffonts.googleapis.com%2Fcss%3Ffamily%3DCrimson%2BText;fontSize=32;spacingRight=10;" parent="1" vertex="1">
          <mxGeometry x="1500" width="150" height="160" as="geometry" />
        </mxCell>
        <mxCell id="GalNy2QHqwmjgTH99Cij-31" value="" style="shape=table;startSize=0;container=1;collapsible=0;childLayout=tableLayout;fontFamily=Crimson Text;fontSource=https%3A%2F%2Ffonts.googleapis.com%2Fcss%3Ffamily%3DCrimson%2BText;" parent="1" vertex="1">
          <mxGeometry x="900" width="600" height="160" as="geometry" />
        </mxCell>
        <mxCell id="GalNy2QHqwmjgTH99Cij-32" value="" style="shape=tableRow;horizontal=0;startSize=0;swimlaneHead=0;swimlaneBody=0;strokeColor=inherit;top=0;left=0;bottom=0;right=0;collapsible=0;dropTarget=0;fillColor=none;points=[[0,0.5],[1,0.5]];portConstraint=eastwest;" parent="GalNy2QHqwmjgTH99Cij-31" vertex="1">
          <mxGeometry width="600" height="38" as="geometry" />
        </mxCell>
        <mxCell id="GalNy2QHqwmjgTH99Cij-33" value="" style="shape=partialRectangle;html=1;whiteSpace=wrap;connectable=0;strokeColor=inherit;overflow=hidden;fillColor=#000000;top=0;left=0;bottom=0;right=0;pointerEvents=1;" parent="GalNy2QHqwmjgTH99Cij-32" vertex="1">
          <mxGeometry width="40" height="38" as="geometry">
            <mxRectangle width="40" height="38" as="alternateBounds" />
          </mxGeometry>
        </mxCell>
        <mxCell id="GalNy2QHqwmjgTH99Cij-34" value="&lt;font face=&quot;Crimson Text&quot;&gt;WORKING&lt;/font&gt;" style="shape=partialRectangle;html=1;whiteSpace=wrap;connectable=0;strokeColor=inherit;overflow=hidden;fillColor=none;top=0;left=0;bottom=0;right=0;pointerEvents=1;fontSize=24;align=left;spacingRight=4;" parent="GalNy2QHqwmjgTH99Cij-32" vertex="1">
          <mxGeometry x="40" width="320" height="38" as="geometry">
            <mxRectangle width="320" height="38" as="alternateBounds" />
          </mxGeometry>
        </mxCell>
        <mxCell id="GalNy2QHqwmjgTH99Cij-35" value="&lt;font style=&quot;font-size: 24px;&quot; face=&quot;Crimson Text&quot;&gt;READER &amp;nbsp; &amp;nbsp; &amp;nbsp; &amp;nbsp; &amp;nbsp; &amp;nbsp; &amp;nbsp; &amp;nbsp;DATE&lt;/font&gt;" style="shape=partialRectangle;html=1;whiteSpace=wrap;connectable=0;strokeColor=inherit;overflow=hidden;fillColor=none;top=0;left=0;bottom=0;right=0;pointerEvents=1;align=left;" parent="GalNy2QHqwmjgTH99Cij-32" vertex="1">
          <mxGeometry x="360" width="240" height="38" as="geometry">
            <mxRectangle width="240" height="38" as="alternateBounds" />
          </mxGeometry>
        </mxCell>
        <mxCell id="GalNy2QHqwmjgTH99Cij-36" value="" style="shape=tableRow;horizontal=0;startSize=0;swimlaneHead=0;swimlaneBody=0;strokeColor=inherit;top=0;left=0;bottom=0;right=0;collapsible=0;dropTarget=0;fillColor=none;points=[[0,0.5],[1,0.5]];portConstraint=eastwest;" parent="GalNy2QHqwmjgTH99Cij-31" vertex="1">
          <mxGeometry y="38" width="600" height="41" as="geometry" />
        </mxCell>
        <mxCell id="GalNy2QHqwmjgTH99Cij-37" value="" style="shape=partialRectangle;html=1;whiteSpace=wrap;connectable=0;strokeColor=inherit;overflow=hidden;fillColor=none;top=0;left=0;bottom=0;right=0;pointerEvents=1;" parent="GalNy2QHqwmjgTH99Cij-36" vertex="1">
          <mxGeometry width="40" height="41" as="geometry">
            <mxRectangle width="40" height="41" as="alternateBounds" />
          </mxGeometry>
        </mxCell>
        <mxCell id="GalNy2QHqwmjgTH99Cij-38" value="&lt;font face=&quot;Crimson Text&quot;&gt;DRAFT&lt;/font&gt;" style="shape=partialRectangle;html=1;whiteSpace=wrap;connectable=0;strokeColor=inherit;overflow=hidden;fillColor=none;top=0;left=0;bottom=0;right=0;pointerEvents=1;fontSize=24;align=left;spacingRight=4;" parent="GalNy2QHqwmjgTH99Cij-36" vertex="1">
          <mxGeometry x="40" width="320" height="41" as="geometry">
            <mxRectangle width="320" height="41" as="alternateBounds" />
          </mxGeometry>
        </mxCell>
        <mxCell id="GalNy2QHqwmjgTH99Cij-39" value="" style="shape=partialRectangle;html=1;whiteSpace=wrap;connectable=0;strokeColor=inherit;overflow=hidden;fillColor=none;top=0;left=0;bottom=0;right=0;pointerEvents=1;" parent="GalNy2QHqwmjgTH99Cij-36" vertex="1">
          <mxGeometry x="360" width="240" height="41" as="geometry">
            <mxRectangle width="240" height="41" as="alternateBounds" />
          </mxGeometry>
        </mxCell>
        <mxCell id="GalNy2QHqwmjgTH99Cij-40" value="" style="shape=tableRow;horizontal=0;startSize=0;swimlaneHead=0;swimlaneBody=0;strokeColor=inherit;top=0;left=0;bottom=0;right=0;collapsible=0;dropTarget=0;fillColor=none;points=[[0,0.5],[1,0.5]];portConstraint=eastwest;" parent="GalNy2QHqwmjgTH99Cij-31" vertex="1">
          <mxGeometry y="79" width="600" height="40" as="geometry" />
        </mxCell>
        <mxCell id="GalNy2QHqwmjgTH99Cij-41" value="" style="shape=partialRectangle;html=1;whiteSpace=wrap;connectable=0;strokeColor=inherit;overflow=hidden;fillColor=none;top=0;left=0;bottom=0;right=0;pointerEvents=1;" parent="GalNy2QHqwmjgTH99Cij-40" vertex="1">
          <mxGeometry width="40" height="40" as="geometry">
            <mxRectangle width="40" height="40" as="alternateBounds" />
          </mxGeometry>
        </mxCell>
        <mxCell id="GalNy2QHqwmjgTH99Cij-42" value="&lt;font face=&quot;Crimson Text&quot;&gt;RECOMMENDED&lt;/font&gt;" style="shape=partialRectangle;html=1;whiteSpace=wrap;connectable=0;strokeColor=inherit;overflow=hidden;fillColor=none;top=0;left=0;bottom=0;right=0;pointerEvents=1;fontSize=24;align=left;spacingRight=4;" parent="GalNy2QHqwmjgTH99Cij-40" vertex="1">
          <mxGeometry x="40" width="320" height="40" as="geometry">
            <mxRectangle width="320" height="40" as="alternateBounds" />
          </mxGeometry>
        </mxCell>
        <mxCell id="GalNy2QHqwmjgTH99Cij-43" value="" style="shape=partialRectangle;html=1;whiteSpace=wrap;connectable=0;strokeColor=inherit;overflow=hidden;fillColor=none;top=0;left=0;bottom=0;right=0;pointerEvents=1;" parent="GalNy2QHqwmjgTH99Cij-40" vertex="1">
          <mxGeometry x="360" width="240" height="40" as="geometry">
            <mxRectangle width="240" height="40" as="alternateBounds" />
          </mxGeometry>
        </mxCell>
        <mxCell id="GalNy2QHqwmjgTH99Cij-44" value="" style="shape=tableRow;horizontal=0;startSize=0;swimlaneHead=0;swimlaneBody=0;strokeColor=inherit;top=0;left=0;bottom=0;right=0;collapsible=0;dropTarget=0;fillColor=none;points=[[0,0.5],[1,0.5]];portConstraint=eastwest;" parent="GalNy2QHqwmjgTH99Cij-31" vertex="1">
          <mxGeometry y="119" width="600" height="41" as="geometry" />
        </mxCell>
        <mxCell id="GalNy2QHqwmjgTH99Cij-45" value="" style="shape=partialRectangle;html=1;whiteSpace=wrap;connectable=0;strokeColor=inherit;overflow=hidden;fillColor=none;top=0;left=0;bottom=0;right=0;pointerEvents=1;" parent="GalNy2QHqwmjgTH99Cij-44" vertex="1">
          <mxGeometry width="40" height="41" as="geometry">
            <mxRectangle width="40" height="41" as="alternateBounds" />
          </mxGeometry>
        </mxCell>
        <mxCell id="GalNy2QHqwmjgTH99Cij-46" value="&lt;font face=&quot;Crimson Text&quot;&gt;PUBLICATION&lt;/font&gt;" style="shape=partialRectangle;html=1;whiteSpace=wrap;connectable=0;strokeColor=inherit;overflow=hidden;fillColor=none;top=0;left=0;bottom=0;right=0;pointerEvents=1;fontSize=24;align=left;spacingRight=4;" parent="GalNy2QHqwmjgTH99Cij-44" vertex="1">
          <mxGeometry x="40" width="320" height="41" as="geometry">
            <mxRectangle width="320" height="41" as="alternateBounds" />
          </mxGeometry>
        </mxCell>
        <mxCell id="GalNy2QHqwmjgTH99Cij-47" value="" style="shape=partialRectangle;html=1;whiteSpace=wrap;connectable=0;strokeColor=inherit;overflow=hidden;fillColor=none;top=0;left=0;bottom=0;right=0;pointerEvents=1;" parent="GalNy2QHqwmjgTH99Cij-44" vertex="1">
          <mxGeometry x="360" width="240" height="41" as="geometry">
            <mxRectangle width="240" height="41" as="alternateBounds" />
          </mxGeometry>
        </mxCell>
        <mxCell id="GalNy2QHqwmjgTH99Cij-48" value="&lt;div style=&quot;line-height: 120%;&quot;&gt;&amp;nbsp; NODE:&lt;/div&gt;&lt;div style=&quot;line-height: 120%;&quot;&gt;&lt;br&gt;&lt;/div&gt;&lt;div style=&quot;line-height: 120%;&quot;&gt;&amp;nbsp; &amp;nbsp; &amp;nbsp; &amp;nbsp; &amp;nbsp; &amp;nbsp; &amp;nbsp; &amp;nbsp; &amp;nbsp; A0&lt;span style=&quot;display: inline;&quot;&gt;&lt;/span&gt;&lt;span style=&quot;display: inline;&quot;&gt;&lt;/span&gt;&lt;span style=&quot;display: inline;&quot;&gt;&lt;/span&gt;&lt;/div&gt;" style="rounded=0;whiteSpace=wrap;html=1;fontFamily=Crimson Text;fontSource=https%3A%2F%2Ffonts.googleapis.com%2Fcss%3Ffamily%3DCrimson%2BText;fontSize=32;spacingRight=10;align=left;" parent="1" vertex="1">
          <mxGeometry y="1009" width="300" height="160" as="geometry" />
        </mxCell>
        <mxCell id="GalNy2QHqwmjgTH99Cij-49" value="&lt;div style=&quot;line-height: 120%;&quot;&gt;&amp;nbsp; NUMBER:&lt;/div&gt;&amp;nbsp; &amp;nbsp; &amp;nbsp; &amp;nbsp; &amp;nbsp; &amp;nbsp;&amp;nbsp;&lt;div&gt;&amp;nbsp; &amp;nbsp; &amp;nbsp; &amp;nbsp; &amp;nbsp; &amp;nbsp; &amp;nbsp; &amp;nbsp; &amp;nbsp;pg. 0&lt;/div&gt;" style="rounded=0;whiteSpace=wrap;html=1;fontFamily=Crimson Text;fontSource=https%3A%2F%2Ffonts.googleapis.com%2Fcss%3Ffamily%3DCrimson%2BText;fontSize=32;spacingRight=10;align=left;" parent="1" vertex="1">
          <mxGeometry x="1350" y="1009" width="300" height="160" as="geometry" />
        </mxCell>
        <mxCell id="GalNy2QHqwmjgTH99Cij-50" value="&lt;blockquote style=&quot;margin: 0 0 0 40px; border: none; padding: 0px;&quot;&gt;Title:&lt;span style=&quot;white-space: pre;&quot;&gt;&#x9;&lt;/span&gt;&lt;span style=&quot;white-space: pre;&quot;&gt;&#x9;&lt;span style=&quot;white-space: pre;&quot;&gt;&#x9;&lt;/span&gt;&lt;span style=&quot;white-space: pre;&quot;&gt;&#x9;&lt;/span&gt;&lt;span style=&quot;white-space: pre;&quot;&gt;&#x9;&lt;/span&gt;R&lt;/span&gt;obotic sorting system&lt;/blockquote&gt;" style="rounded=0;whiteSpace=wrap;html=1;fontFamily=Crimson Text;fontSource=https%3A%2F%2Ffonts.googleapis.com%2Fcss%3Ffamily%3DCrimson%2BText;fontSize=32;spacingRight=10;align=left;spacingLeft=-10;" parent="1" vertex="1">
          <mxGeometry x="300" y="1009" width="1050" height="160" as="geometry" />
        </mxCell>
        <mxCell id="GalNy2QHqwmjgTH99Cij-51" value="" style="endArrow=none;html=1;rounded=0;entryX=0;entryY=1;entryDx=0;entryDy=0;exitX=0;exitY=0;exitDx=0;exitDy=0;" parent="1" source="GalNy2QHqwmjgTH99Cij-48" target="GalNy2QHqwmjgTH99Cij-1" edge="1">
          <mxGeometry width="50" height="50" relative="1" as="geometry">
            <mxPoint x="970" y="670" as="sourcePoint" />
            <mxPoint x="1020" y="620" as="targetPoint" />
          </mxGeometry>
        </mxCell>
        <mxCell id="GalNy2QHqwmjgTH99Cij-52" value="" style="endArrow=none;html=1;rounded=0;entryX=1;entryY=1;entryDx=0;entryDy=0;exitX=1;exitY=0;exitDx=0;exitDy=0;" parent="1" source="GalNy2QHqwmjgTH99Cij-49" target="GalNy2QHqwmjgTH99Cij-4" edge="1">
          <mxGeometry width="50" height="50" relative="1" as="geometry">
            <mxPoint x="1570" y="490" as="sourcePoint" />
            <mxPoint x="1620" y="440" as="targetPoint" />
          </mxGeometry>
        </mxCell>
        <mxCell id="GalNy2QHqwmjgTH99Cij-53" value="&lt;div style=&quot;text-align: justify;&quot;&gt;&lt;font&gt;&lt;strong style=&quot;text-align: start;&quot;&gt;Purpose&lt;/strong&gt;&lt;span style=&quot;text-align: start;&quot;&gt;: To design an automated solution for sorting items &lt;span style=&quot;white-space: pre;&quot;&gt;&#x9;&lt;/span&gt;&lt;span style=&quot;white-space: pre;&quot;&gt;&#x9;    &lt;/span&gt;efficiently, with high accuracy and consistency, using a &lt;span style=&quot;white-space: pre;&quot;&gt;&#x9;&lt;/span&gt;&lt;span style=&quot;white-space: pre;&quot;&gt;&#x9;    &lt;/span&gt;robotic sorting system that can adapt to different item types.&lt;/span&gt;&lt;/font&gt;&lt;/div&gt;" style="text;html=1;align=center;verticalAlign=middle;whiteSpace=wrap;rounded=0;fontFamily=Crimson Text;fontSource=https%3A%2F%2Ffonts.googleapis.com%2Fcss%3Ffamily%3DCrimson%2BText;fontSize=24;" parent="1" vertex="1">
          <mxGeometry x="40" y="880" width="720" height="120" as="geometry" />
        </mxCell>
        <mxCell id="GalNy2QHqwmjgTH99Cij-54" value="&lt;div style=&quot;text-align: justify;&quot;&gt;&lt;strong style=&quot;text-align: start;&quot;&gt;Viewpoint&lt;/strong&gt;&lt;span style=&quot;text-align: start;&quot;&gt;: &amp;nbsp;System Engineer&lt;/span&gt;&lt;/div&gt;" style="text;html=1;align=center;verticalAlign=middle;whiteSpace=wrap;rounded=0;fontFamily=Crimson Text;fontSource=https%3A%2F%2Ffonts.googleapis.com%2Fcss%3Ffamily%3DCrimson%2BText;fontSize=24;" parent="1" vertex="1">
          <mxGeometry x="880" y="880" width="720" height="120" as="geometry" />
        </mxCell>
        <mxCell id="GalNy2QHqwmjgTH99Cij-56" value="&lt;div style=&quot;line-height: 120%;&quot;&gt;Robotic Sorting System&lt;/div&gt;" style="rounded=0;whiteSpace=wrap;html=1;fontFamily=Crimson Text;fontSource=https%3A%2F%2Ffonts.googleapis.com%2Fcss%3Ffamily%3DCrimson%2BText;fontSize=32;spacingRight=10;align=center;" parent="1" vertex="1">
          <mxGeometry x="677" y="420" width="300" height="160" as="geometry" />
        </mxCell>
        <mxCell id="GalNy2QHqwmjgTH99Cij-58" value="Production&lt;div&gt;Palletized Batches&amp;nbsp;&lt;/div&gt;" style="endArrow=classicThin;html=1;rounded=0;endFill=1;endSize=18;strokeWidth=2;exitX=1;exitY=0.5;exitDx=0;exitDy=0;fontFamily=Crimson Text;fontSource=https%3A%2F%2Ffonts.googleapis.com%2Fcss%3Ffamily%3DCrimson%2BText;fontSize=22;verticalAlign=top;labelBackgroundColor=none;" parent="1" edge="1">
          <mxGeometry x="0.004" width="50" height="50" relative="1" as="geometry">
            <mxPoint x="978" y="500" as="sourcePoint" />
            <mxPoint x="1181" y="500" as="targetPoint" />
            <mxPoint as="offset" />
          </mxGeometry>
        </mxCell>
        <mxCell id="GalNy2QHqwmjgTH99Cij-59" value="Sorting&lt;div&gt;Rules&lt;/div&gt;" style="endArrow=classicThin;html=1;rounded=0;entryX=0.5;entryY=0;entryDx=0;entryDy=0;endFill=1;endSize=18;strokeWidth=2;fontFamily=Crimson Text;fontSource=https%3A%2F%2Ffonts.googleapis.com%2Fcss%3Ffamily%3DCrimson%2BText;fontSize=22;labelBackgroundColor=none;verticalAlign=bottom;" parent="1" edge="1">
          <mxGeometry x="-0.25" y="-47" width="50" height="50" relative="1" as="geometry">
            <mxPoint x="757" y="260" as="sourcePoint" />
            <mxPoint x="757" y="420" as="targetPoint" />
            <mxPoint as="offset" />
          </mxGeometry>
        </mxCell>
        <mxCell id="GalNy2QHqwmjgTH99Cij-60" value="Robotic&lt;div&gt;Arms&lt;/div&gt;" style="endArrow=classicThin;html=1;rounded=0;endFill=1;endSize=18;strokeWidth=2;entryX=0.5;entryY=1;entryDx=0;entryDy=0;fontFamily=Crimson Text;fontSource=https%3A%2F%2Ffonts.googleapis.com%2Fcss%3Ffamily%3DCrimson%2BText;fontSize=22;verticalAlign=top;" parent="1" edge="1">
          <mxGeometry x="-1" width="50" height="50" relative="1" as="geometry">
            <mxPoint x="751" y="740" as="sourcePoint" />
            <mxPoint x="751" y="580" as="targetPoint" />
            <mxPoint as="offset" />
          </mxGeometry>
        </mxCell>
        <mxCell id="GalNy2QHqwmjgTH99Cij-61" value="Detection&lt;div&gt;Systems&lt;/div&gt;" style="endArrow=classicThin;html=1;rounded=0;endFill=1;endSize=18;strokeWidth=2;entryX=0.5;entryY=1;entryDx=0;entryDy=0;fontFamily=Crimson Text;fontSource=https%3A%2F%2Ffonts.googleapis.com%2Fcss%3Ffamily%3DCrimson%2BText;fontSize=22;verticalAlign=top;" parent="1" edge="1">
          <mxGeometry x="-1" width="50" height="50" relative="1" as="geometry">
            <mxPoint x="834" y="740" as="sourcePoint" />
            <mxPoint x="834" y="580" as="targetPoint" />
            <mxPoint as="offset" />
          </mxGeometry>
        </mxCell>
        <mxCell id="GalNy2QHqwmjgTH99Cij-62" value="Basic&lt;div&gt;Workers&lt;/div&gt;" style="endArrow=classicThin;html=1;rounded=0;endFill=1;endSize=18;strokeWidth=2;entryX=0.5;entryY=1;entryDx=0;entryDy=0;fontFamily=Crimson Text;fontSource=https%3A%2F%2Ffonts.googleapis.com%2Fcss%3Ffamily%3DCrimson%2BText;fontSize=22;verticalAlign=top;" parent="1" edge="1">
          <mxGeometry x="-1" width="50" height="50" relative="1" as="geometry">
            <mxPoint x="920" y="740" as="sourcePoint" />
            <mxPoint x="920" y="580" as="targetPoint" />
            <mxPoint as="offset" />
          </mxGeometry>
        </mxCell>
        <mxCell id="GalNy2QHqwmjgTH99Cij-63" value="Production" style="endArrow=classicThin;html=1;rounded=0;entryX=0;entryY=0.5;entryDx=0;entryDy=0;endFill=1;endSize=18;strokeWidth=2;fontFamily=Crimson Text;fontSource=https%3A%2F%2Ffonts.googleapis.com%2Fcss%3Ffamily%3DCrimson%2BText;fontSize=22;verticalAlign=bottom;spacingRight=24;labelBackgroundColor=none;spacingBottom=5;" parent="1" edge="1">
          <mxGeometry x="-0.0004" width="50" height="50" relative="1" as="geometry">
            <mxPoint x="480" y="500" as="sourcePoint" />
            <mxPoint x="677" y="500" as="targetPoint" />
            <mxPoint as="offset" />
          </mxGeometry>
        </mxCell>
        <mxCell id="yMx2xB417AtkxRecwNmC-2" value="&lt;div style=&quot;text-align: left; line-height: 120%;&quot;&gt;&amp;nbsp; USED AT:&lt;/div&gt;&lt;div style=&quot;line-height: 120%;&quot;&gt;Skoltech Systems Engineering course&lt;span style=&quot;display: inline;&quot;&gt;&lt;/span&gt;&lt;span style=&quot;display: inline;&quot;&gt;&lt;/span&gt;&lt;span style=&quot;display: inline;&quot;&gt;&lt;/span&gt;&lt;/div&gt;" style="rounded=0;whiteSpace=wrap;html=1;fontFamily=Crimson Text;fontSource=https%3A%2F%2Ffonts.googleapis.com%2Fcss%3Ffamily%3DCrimson%2BText;fontSize=32;spacingRight=10;" parent="1" vertex="1">
          <mxGeometry y="1169" width="300" height="160" as="geometry" />
        </mxCell>
        <mxCell id="yMx2xB417AtkxRecwNmC-3" value="&lt;div style=&quot;text-align: right; line-height: 120%;&quot;&gt;AUTHOR: Fatykhoph Denis &amp;nbsp; &amp;nbsp; &amp;nbsp; &amp;nbsp; &amp;nbsp; &amp;nbsp;&lt;font style=&quot;font-size: 20px;&quot;&gt;DATE: 02.12.2024&lt;/font&gt;&lt;/div&gt;&lt;div style=&quot;line-height: 120%;&quot;&gt;PROJECT: Robotic Sorting System&lt;/div&gt;" style="rounded=0;whiteSpace=wrap;html=1;fontFamily=Crimson Text;fontSource=https%3A%2F%2Ffonts.googleapis.com%2Fcss%3Ffamily%3DCrimson%2BText;fontSize=32;spacingRight=10;align=left;" parent="1" vertex="1">
          <mxGeometry x="300" y="1169" width="600" height="160" as="geometry" />
        </mxCell>
        <mxCell id="yMx2xB417AtkxRecwNmC-4" value="&lt;div style=&quot;text-align: left; line-height: 120%;&quot;&gt;Context&lt;/div&gt;" style="rounded=0;whiteSpace=wrap;html=1;fontFamily=Crimson Text;fontSource=https%3A%2F%2Ffonts.googleapis.com%2Fcss%3Ffamily%3DCrimson%2BText;fontSize=32;spacingRight=10;" parent="1" vertex="1">
          <mxGeometry x="1500" y="1169" width="150" height="160" as="geometry" />
        </mxCell>
        <mxCell id="yMx2xB417AtkxRecwNmC-5" value="" style="shape=table;startSize=0;container=1;collapsible=0;childLayout=tableLayout;fontFamily=Crimson Text;fontSource=https%3A%2F%2Ffonts.googleapis.com%2Fcss%3Ffamily%3DCrimson%2BText;" parent="1" vertex="1">
          <mxGeometry x="900" y="1169" width="600" height="160" as="geometry" />
        </mxCell>
        <mxCell id="yMx2xB417AtkxRecwNmC-6" value="" style="shape=tableRow;horizontal=0;startSize=0;swimlaneHead=0;swimlaneBody=0;strokeColor=inherit;top=0;left=0;bottom=0;right=0;collapsible=0;dropTarget=0;fillColor=none;points=[[0,0.5],[1,0.5]];portConstraint=eastwest;" parent="yMx2xB417AtkxRecwNmC-5" vertex="1">
          <mxGeometry width="600" height="38" as="geometry" />
        </mxCell>
        <mxCell id="yMx2xB417AtkxRecwNmC-7" value="" style="shape=partialRectangle;html=1;whiteSpace=wrap;connectable=0;strokeColor=inherit;overflow=hidden;fillColor=#000000;top=0;left=0;bottom=0;right=0;pointerEvents=1;" parent="yMx2xB417AtkxRecwNmC-6" vertex="1">
          <mxGeometry width="40" height="38" as="geometry">
            <mxRectangle width="40" height="38" as="alternateBounds" />
          </mxGeometry>
        </mxCell>
        <mxCell id="yMx2xB417AtkxRecwNmC-8" value="&lt;font face=&quot;Crimson Text&quot;&gt;WORKING&lt;/font&gt;" style="shape=partialRectangle;html=1;whiteSpace=wrap;connectable=0;strokeColor=inherit;overflow=hidden;fillColor=none;top=0;left=0;bottom=0;right=0;pointerEvents=1;fontSize=24;align=left;spacingRight=4;" parent="yMx2xB417AtkxRecwNmC-6" vertex="1">
          <mxGeometry x="40" width="320" height="38" as="geometry">
            <mxRectangle width="320" height="38" as="alternateBounds" />
          </mxGeometry>
        </mxCell>
        <mxCell id="yMx2xB417AtkxRecwNmC-9" value="&lt;font style=&quot;font-size: 24px;&quot; face=&quot;Crimson Text&quot;&gt;READER &amp;nbsp; &amp;nbsp; &amp;nbsp; &amp;nbsp; &amp;nbsp; &amp;nbsp; &amp;nbsp; &amp;nbsp;DATE&lt;/font&gt;" style="shape=partialRectangle;html=1;whiteSpace=wrap;connectable=0;strokeColor=inherit;overflow=hidden;fillColor=none;top=0;left=0;bottom=0;right=0;pointerEvents=1;align=left;" parent="yMx2xB417AtkxRecwNmC-6" vertex="1">
          <mxGeometry x="360" width="240" height="38" as="geometry">
            <mxRectangle width="240" height="38" as="alternateBounds" />
          </mxGeometry>
        </mxCell>
        <mxCell id="yMx2xB417AtkxRecwNmC-10" value="" style="shape=tableRow;horizontal=0;startSize=0;swimlaneHead=0;swimlaneBody=0;strokeColor=inherit;top=0;left=0;bottom=0;right=0;collapsible=0;dropTarget=0;fillColor=none;points=[[0,0.5],[1,0.5]];portConstraint=eastwest;" parent="yMx2xB417AtkxRecwNmC-5" vertex="1">
          <mxGeometry y="38" width="600" height="41" as="geometry" />
        </mxCell>
        <mxCell id="yMx2xB417AtkxRecwNmC-11" value="" style="shape=partialRectangle;html=1;whiteSpace=wrap;connectable=0;strokeColor=inherit;overflow=hidden;fillColor=none;top=0;left=0;bottom=0;right=0;pointerEvents=1;" parent="yMx2xB417AtkxRecwNmC-10" vertex="1">
          <mxGeometry width="40" height="41" as="geometry">
            <mxRectangle width="40" height="41" as="alternateBounds" />
          </mxGeometry>
        </mxCell>
        <mxCell id="yMx2xB417AtkxRecwNmC-12" value="&lt;font face=&quot;Crimson Text&quot;&gt;DRAFT&lt;/font&gt;" style="shape=partialRectangle;html=1;whiteSpace=wrap;connectable=0;strokeColor=inherit;overflow=hidden;fillColor=none;top=0;left=0;bottom=0;right=0;pointerEvents=1;fontSize=24;align=left;spacingRight=4;" parent="yMx2xB417AtkxRecwNmC-10" vertex="1">
          <mxGeometry x="40" width="320" height="41" as="geometry">
            <mxRectangle width="320" height="41" as="alternateBounds" />
          </mxGeometry>
        </mxCell>
        <mxCell id="yMx2xB417AtkxRecwNmC-13" value="" style="shape=partialRectangle;html=1;whiteSpace=wrap;connectable=0;strokeColor=inherit;overflow=hidden;fillColor=none;top=0;left=0;bottom=0;right=0;pointerEvents=1;" parent="yMx2xB417AtkxRecwNmC-10" vertex="1">
          <mxGeometry x="360" width="240" height="41" as="geometry">
            <mxRectangle width="240" height="41" as="alternateBounds" />
          </mxGeometry>
        </mxCell>
        <mxCell id="yMx2xB417AtkxRecwNmC-14" value="" style="shape=tableRow;horizontal=0;startSize=0;swimlaneHead=0;swimlaneBody=0;strokeColor=inherit;top=0;left=0;bottom=0;right=0;collapsible=0;dropTarget=0;fillColor=none;points=[[0,0.5],[1,0.5]];portConstraint=eastwest;" parent="yMx2xB417AtkxRecwNmC-5" vertex="1">
          <mxGeometry y="79" width="600" height="40" as="geometry" />
        </mxCell>
        <mxCell id="yMx2xB417AtkxRecwNmC-15" value="" style="shape=partialRectangle;html=1;whiteSpace=wrap;connectable=0;strokeColor=inherit;overflow=hidden;fillColor=none;top=0;left=0;bottom=0;right=0;pointerEvents=1;" parent="yMx2xB417AtkxRecwNmC-14" vertex="1">
          <mxGeometry width="40" height="40" as="geometry">
            <mxRectangle width="40" height="40" as="alternateBounds" />
          </mxGeometry>
        </mxCell>
        <mxCell id="yMx2xB417AtkxRecwNmC-16" value="&lt;font face=&quot;Crimson Text&quot;&gt;RECOMMENDED&lt;/font&gt;" style="shape=partialRectangle;html=1;whiteSpace=wrap;connectable=0;strokeColor=inherit;overflow=hidden;fillColor=none;top=0;left=0;bottom=0;right=0;pointerEvents=1;fontSize=24;align=left;spacingRight=4;" parent="yMx2xB417AtkxRecwNmC-14" vertex="1">
          <mxGeometry x="40" width="320" height="40" as="geometry">
            <mxRectangle width="320" height="40" as="alternateBounds" />
          </mxGeometry>
        </mxCell>
        <mxCell id="yMx2xB417AtkxRecwNmC-17" value="" style="shape=partialRectangle;html=1;whiteSpace=wrap;connectable=0;strokeColor=inherit;overflow=hidden;fillColor=none;top=0;left=0;bottom=0;right=0;pointerEvents=1;" parent="yMx2xB417AtkxRecwNmC-14" vertex="1">
          <mxGeometry x="360" width="240" height="40" as="geometry">
            <mxRectangle width="240" height="40" as="alternateBounds" />
          </mxGeometry>
        </mxCell>
        <mxCell id="yMx2xB417AtkxRecwNmC-18" value="" style="shape=tableRow;horizontal=0;startSize=0;swimlaneHead=0;swimlaneBody=0;strokeColor=inherit;top=0;left=0;bottom=0;right=0;collapsible=0;dropTarget=0;fillColor=none;points=[[0,0.5],[1,0.5]];portConstraint=eastwest;" parent="yMx2xB417AtkxRecwNmC-5" vertex="1">
          <mxGeometry y="119" width="600" height="41" as="geometry" />
        </mxCell>
        <mxCell id="yMx2xB417AtkxRecwNmC-19" value="" style="shape=partialRectangle;html=1;whiteSpace=wrap;connectable=0;strokeColor=inherit;overflow=hidden;fillColor=none;top=0;left=0;bottom=0;right=0;pointerEvents=1;" parent="yMx2xB417AtkxRecwNmC-18" vertex="1">
          <mxGeometry width="40" height="41" as="geometry">
            <mxRectangle width="40" height="41" as="alternateBounds" />
          </mxGeometry>
        </mxCell>
        <mxCell id="yMx2xB417AtkxRecwNmC-20" value="&lt;font face=&quot;Crimson Text&quot;&gt;PUBLICATION&lt;/font&gt;" style="shape=partialRectangle;html=1;whiteSpace=wrap;connectable=0;strokeColor=inherit;overflow=hidden;fillColor=none;top=0;left=0;bottom=0;right=0;pointerEvents=1;fontSize=24;align=left;spacingRight=4;" parent="yMx2xB417AtkxRecwNmC-18" vertex="1">
          <mxGeometry x="40" width="320" height="41" as="geometry">
            <mxRectangle width="320" height="41" as="alternateBounds" />
          </mxGeometry>
        </mxCell>
        <mxCell id="yMx2xB417AtkxRecwNmC-21" value="" style="shape=partialRectangle;html=1;whiteSpace=wrap;connectable=0;strokeColor=inherit;overflow=hidden;fillColor=none;top=0;left=0;bottom=0;right=0;pointerEvents=1;" parent="yMx2xB417AtkxRecwNmC-18" vertex="1">
          <mxGeometry x="360" width="240" height="41" as="geometry">
            <mxRectangle width="240" height="41" as="alternateBounds" />
          </mxGeometry>
        </mxCell>
        <mxCell id="yMx2xB417AtkxRecwNmC-22" value="&lt;div style=&quot;line-height: 120%;&quot;&gt;&amp;nbsp; NODE:&lt;/div&gt;&lt;div style=&quot;line-height: 120%;&quot;&gt;&lt;br&gt;&lt;/div&gt;&lt;div style=&quot;line-height: 120%;&quot;&gt;&amp;nbsp; &amp;nbsp; &amp;nbsp; &amp;nbsp; &amp;nbsp; &amp;nbsp; &amp;nbsp; &amp;nbsp; &amp;nbsp; A0F&lt;span style=&quot;display: inline;&quot;&gt;&lt;/span&gt;&lt;/div&gt;" style="rounded=0;whiteSpace=wrap;html=1;fontFamily=Crimson Text;fontSource=https%3A%2F%2Ffonts.googleapis.com%2Fcss%3Ffamily%3DCrimson%2BText;fontSize=32;spacingRight=10;align=left;" parent="1" vertex="1">
          <mxGeometry y="2178" width="300" height="160" as="geometry" />
        </mxCell>
        <mxCell id="yMx2xB417AtkxRecwNmC-23" value="&lt;div style=&quot;line-height: 120%;&quot;&gt;&amp;nbsp; NUMBER:&lt;/div&gt;&amp;nbsp; &amp;nbsp; &amp;nbsp; &amp;nbsp; &amp;nbsp; &amp;nbsp;&amp;nbsp;&lt;div&gt;&amp;nbsp; &amp;nbsp; &amp;nbsp; &amp;nbsp; &amp;nbsp; &amp;nbsp; &amp;nbsp; &amp;nbsp; &amp;nbsp;pg. 1&lt;/div&gt;" style="rounded=0;whiteSpace=wrap;html=1;fontFamily=Crimson Text;fontSource=https%3A%2F%2Ffonts.googleapis.com%2Fcss%3Ffamily%3DCrimson%2BText;fontSize=32;spacingRight=10;align=left;" parent="1" vertex="1">
          <mxGeometry x="1350" y="2178" width="300" height="160" as="geometry" />
        </mxCell>
        <mxCell id="yMx2xB417AtkxRecwNmC-25" value="" style="endArrow=none;html=1;rounded=0;entryX=0;entryY=1;entryDx=0;entryDy=0;exitX=0;exitY=0;exitDx=0;exitDy=0;" parent="1" source="yMx2xB417AtkxRecwNmC-22" target="yMx2xB417AtkxRecwNmC-2" edge="1">
          <mxGeometry width="50" height="50" relative="1" as="geometry">
            <mxPoint x="970" y="1839" as="sourcePoint" />
            <mxPoint x="1020" y="1789" as="targetPoint" />
          </mxGeometry>
        </mxCell>
        <mxCell id="yMx2xB417AtkxRecwNmC-26" value="" style="endArrow=none;html=1;rounded=0;entryX=1;entryY=1;entryDx=0;entryDy=0;exitX=1;exitY=0;exitDx=0;exitDy=0;" parent="1" source="yMx2xB417AtkxRecwNmC-23" target="yMx2xB417AtkxRecwNmC-4" edge="1">
          <mxGeometry width="50" height="50" relative="1" as="geometry">
            <mxPoint x="1570" y="1659" as="sourcePoint" />
            <mxPoint x="1620" y="1609" as="targetPoint" />
          </mxGeometry>
        </mxCell>
        <mxCell id="yMx2xB417AtkxRecwNmC-39" value="&lt;blockquote style=&quot;margin: 0 0 0 40px; border: none; padding: 0px;&quot;&gt;Title:&lt;span style=&quot;white-space: pre;&quot;&gt;&#x9;&lt;/span&gt;&lt;span style=&quot;white-space: pre;&quot;&gt;&#x9;&lt;span style=&quot;white-space: pre;&quot;&gt;&#x9;&lt;/span&gt;&lt;span style=&quot;white-space: pre;&quot;&gt;&#x9;&lt;/span&gt;&lt;span style=&quot;white-space: pre;&quot;&gt;&#x9;&lt;/span&gt;R&lt;/span&gt;obotic sorting system&lt;/blockquote&gt;" style="rounded=0;whiteSpace=wrap;html=1;fontFamily=Crimson Text;fontSource=https%3A%2F%2Ffonts.googleapis.com%2Fcss%3Ffamily%3DCrimson%2BText;fontSize=32;spacingRight=10;align=left;spacingLeft=-10;" parent="1" vertex="1">
          <mxGeometry x="300" y="2178" width="1052" height="160" as="geometry" />
        </mxCell>
        <mxCell id="yMx2xB417AtkxRecwNmC-40" value="A0" style="text;html=1;align=center;verticalAlign=middle;whiteSpace=wrap;rounded=0;fontFamily=Crimson Text;fontSource=https%3A%2F%2Ffonts.googleapis.com%2Fcss%3Ffamily%3DCrimson%2BText;fontSize=22;fontStyle=0" parent="1" vertex="1">
          <mxGeometry x="927" y="529" width="50" height="50" as="geometry" />
        </mxCell>
        <mxCell id="yMx2xB417AtkxRecwNmC-41" value="&lt;div style=&quot;line-height: 120%;&quot;&gt;Pre-screen&lt;/div&gt;&lt;div style=&quot;line-height: 120%;&quot;&gt;Production&lt;/div&gt;" style="rounded=0;whiteSpace=wrap;html=1;fontFamily=Crimson Text;fontSource=https%3A%2F%2Ffonts.googleapis.com%2Fcss%3Ffamily%3DCrimson%2BText;fontSize=24;spacingRight=10;align=center;" parent="1" vertex="1">
          <mxGeometry x="120" y="1440" width="200" height="120" as="geometry" />
        </mxCell>
        <mxCell id="yMx2xB417AtkxRecwNmC-42" value="A1" style="text;html=1;align=center;verticalAlign=middle;whiteSpace=wrap;rounded=0;fontFamily=Crimson Text;fontSource=https%3A%2F%2Ffonts.googleapis.com%2Fcss%3Ffamily%3DCrimson%2BText;fontSize=16;fontStyle=0" parent="1" vertex="1">
          <mxGeometry x="290" y="1530" width="30" height="30" as="geometry" />
        </mxCell>
        <mxCell id="yMx2xB417AtkxRecwNmC-110" style="edgeStyle=orthogonalEdgeStyle;rounded=1;orthogonalLoop=1;jettySize=auto;html=1;exitX=1;exitY=0.5;exitDx=0;exitDy=0;strokeColor=default;curved=0;align=center;verticalAlign=middle;arcSize=30;fontFamily=Helvetica;fontSize=11;fontColor=default;labelBackgroundColor=default;endArrow=classic;" parent="1" source="yMx2xB417AtkxRecwNmC-65" target="yMx2xB417AtkxRecwNmC-67" edge="1">
          <mxGeometry relative="1" as="geometry" />
        </mxCell>
        <mxCell id="yMx2xB417AtkxRecwNmC-65" value="&lt;div style=&quot;line-height: 120%;&quot;&gt;Smart&lt;br&gt;&lt;/div&gt;&lt;div style=&quot;line-height: 120%;&quot;&gt;Detection&lt;/div&gt;" style="rounded=0;whiteSpace=wrap;html=1;fontFamily=Crimson Text;fontSource=https%3A%2F%2Ffonts.googleapis.com%2Fcss%3Ffamily%3DCrimson%2BText;fontSize=24;spacingRight=10;align=center;" parent="1" vertex="1">
          <mxGeometry x="400" y="1560" width="200" height="120" as="geometry" />
        </mxCell>
        <mxCell id="yMx2xB417AtkxRecwNmC-66" value="A2" style="text;html=1;align=center;verticalAlign=middle;whiteSpace=wrap;rounded=0;fontFamily=Crimson Text;fontSource=https%3A%2F%2Ffonts.googleapis.com%2Fcss%3Ffamily%3DCrimson%2BText;fontSize=16;fontStyle=0" parent="1" vertex="1">
          <mxGeometry x="570" y="1650" width="30" height="30" as="geometry" />
        </mxCell>
        <mxCell id="yMx2xB417AtkxRecwNmC-111" style="edgeStyle=orthogonalEdgeStyle;rounded=1;orthogonalLoop=1;jettySize=auto;html=1;exitX=1;exitY=0.5;exitDx=0;exitDy=0;strokeColor=default;curved=0;align=center;verticalAlign=middle;arcSize=30;fontFamily=Helvetica;fontSize=11;fontColor=default;labelBackgroundColor=default;endArrow=classic;" parent="1" source="yMx2xB417AtkxRecwNmC-67" target="yMx2xB417AtkxRecwNmC-69" edge="1">
          <mxGeometry relative="1" as="geometry" />
        </mxCell>
        <mxCell id="yMx2xB417AtkxRecwNmC-67" value="&lt;div style=&quot;line-height: 120%;&quot;&gt;Automated&lt;br&gt;&lt;/div&gt;&lt;div style=&quot;line-height: 120%;&quot;&gt;Sorting&lt;/div&gt;" style="rounded=0;whiteSpace=wrap;html=1;fontFamily=Crimson Text;fontSource=https%3A%2F%2Ffonts.googleapis.com%2Fcss%3Ffamily%3DCrimson%2BText;fontSize=24;spacingRight=10;align=center;" parent="1" vertex="1">
          <mxGeometry x="680" y="1680" width="200" height="120" as="geometry" />
        </mxCell>
        <mxCell id="yMx2xB417AtkxRecwNmC-68" value="A3" style="text;html=1;align=center;verticalAlign=middle;whiteSpace=wrap;rounded=0;fontFamily=Crimson Text;fontSource=https%3A%2F%2Ffonts.googleapis.com%2Fcss%3Ffamily%3DCrimson%2BText;fontSize=16;fontStyle=0" parent="1" vertex="1">
          <mxGeometry x="850" y="1770" width="30" height="30" as="geometry" />
        </mxCell>
        <mxCell id="yMx2xB417AtkxRecwNmC-107" style="edgeStyle=orthogonalEdgeStyle;rounded=1;orthogonalLoop=1;jettySize=auto;html=1;exitX=1;exitY=0.5;exitDx=0;exitDy=0;entryX=0;entryY=0.5;entryDx=0;entryDy=0;strokeColor=default;curved=0;align=center;verticalAlign=middle;arcSize=30;fontFamily=Helvetica;fontSize=11;fontColor=default;labelBackgroundColor=default;endArrow=classic;" parent="1" source="yMx2xB417AtkxRecwNmC-69" target="yMx2xB417AtkxRecwNmC-105" edge="1">
          <mxGeometry relative="1" as="geometry" />
        </mxCell>
        <mxCell id="yMx2xB417AtkxRecwNmC-69" value="&lt;div style=&quot;line-height: 120%;&quot;&gt;AI&lt;br&gt;&lt;/div&gt;&lt;div style=&quot;line-height: 120%;&quot;&gt;Labeling&lt;/div&gt;" style="rounded=0;whiteSpace=wrap;html=1;fontFamily=Crimson Text;fontSource=https%3A%2F%2Ffonts.googleapis.com%2Fcss%3Ffamily%3DCrimson%2BText;fontSize=24;spacingRight=10;align=center;" parent="1" vertex="1">
          <mxGeometry x="960" y="1800" width="200" height="120" as="geometry" />
        </mxCell>
        <mxCell id="yMx2xB417AtkxRecwNmC-70" value="A4" style="text;html=1;align=center;verticalAlign=middle;whiteSpace=wrap;rounded=0;fontFamily=Crimson Text;fontSource=https%3A%2F%2Ffonts.googleapis.com%2Fcss%3Ffamily%3DCrimson%2BText;fontSize=16;fontStyle=0" parent="1" vertex="1">
          <mxGeometry x="1130" y="1890" width="30" height="30" as="geometry" />
        </mxCell>
        <mxCell id="yMx2xB417AtkxRecwNmC-114" style="edgeStyle=orthogonalEdgeStyle;rounded=0;orthogonalLoop=1;jettySize=auto;html=1;exitX=1;exitY=0.5;exitDx=0;exitDy=0;" parent="1" source="yMx2xB417AtkxRecwNmC-72" edge="1">
          <mxGeometry relative="1" as="geometry">
            <mxPoint x="1600" y="2020" as="targetPoint" />
          </mxGeometry>
        </mxCell>
        <mxCell id="yMx2xB417AtkxRecwNmC-72" value="&lt;div style=&quot;line-height: 120%;&quot;&gt;Production&lt;br&gt;&lt;/div&gt;&lt;div style=&quot;line-height: 120%;&quot;&gt;Palletizing&lt;/div&gt;" style="rounded=0;whiteSpace=wrap;html=1;fontFamily=Crimson Text;fontSource=https%3A%2F%2Ffonts.googleapis.com%2Fcss%3Ffamily%3DCrimson%2BText;fontSize=24;spacingRight=10;align=center;" parent="1" vertex="1">
          <mxGeometry x="1240" y="1960" width="200" height="120" as="geometry" />
        </mxCell>
        <mxCell id="yMx2xB417AtkxRecwNmC-73" value="A6" style="text;html=1;align=center;verticalAlign=middle;whiteSpace=wrap;rounded=0;fontFamily=Crimson Text;fontSource=https%3A%2F%2Ffonts.googleapis.com%2Fcss%3Ffamily%3DCrimson%2BText;fontSize=16;fontStyle=0" parent="1" vertex="1">
          <mxGeometry x="1410" y="2050" width="30" height="30" as="geometry" />
        </mxCell>
        <mxCell id="yMx2xB417AtkxRecwNmC-74" value="" style="endArrow=classic;html=1;rounded=0;entryX=-0.005;entryY=0.347;entryDx=0;entryDy=0;entryPerimeter=0;verticalAlign=bottom;" parent="1" edge="1">
          <mxGeometry width="50" height="50" relative="1" as="geometry">
            <mxPoint x="20" y="1499" as="sourcePoint" />
            <mxPoint x="119.00000000000006" y="1498.6399999999999" as="targetPoint" />
          </mxGeometry>
        </mxCell>
        <mxCell id="yMx2xB417AtkxRecwNmC-75" value="Production" style="edgeLabel;html=1;align=center;verticalAlign=bottom;resizable=0;points=[];fontSize=18;fontFamily=Crimson Text;fontSource=https%3A%2F%2Ffonts.googleapis.com%2Fcss%3Ffamily%3DCrimson%2BText;" parent="yMx2xB417AtkxRecwNmC-74" vertex="1" connectable="0">
          <mxGeometry x="-0.2445" y="-1" relative="1" as="geometry">
            <mxPoint x="3" y="-3" as="offset" />
          </mxGeometry>
        </mxCell>
        <mxCell id="yMx2xB417AtkxRecwNmC-78" value="" style="endArrow=classic;html=1;rounded=0;entryX=0.5;entryY=0;entryDx=0;entryDy=0;verticalAlign=bottom;" parent="1" target="yMx2xB417AtkxRecwNmC-41" edge="1">
          <mxGeometry width="50" height="50" relative="1" as="geometry">
            <mxPoint x="220" y="1340" as="sourcePoint" />
            <mxPoint x="269" y="1370" as="targetPoint" />
          </mxGeometry>
        </mxCell>
        <mxCell id="yMx2xB417AtkxRecwNmC-79" value="&lt;div&gt;3-A Sanitary&lt;/div&gt;&lt;div&gt;Standarts&lt;/div&gt;" style="edgeLabel;html=1;align=center;verticalAlign=bottom;resizable=0;points=[];fontFamily=Crimson Text;fontSource=https%3A%2F%2Ffonts.googleapis.com%2Fcss%3Ffamily%3DCrimson%2BText;fontSize=18;" parent="yMx2xB417AtkxRecwNmC-78" vertex="1" connectable="0">
          <mxGeometry x="-0.2445" y="-1" relative="1" as="geometry">
            <mxPoint x="-59" y="13" as="offset" />
          </mxGeometry>
        </mxCell>
        <mxCell id="yMx2xB417AtkxRecwNmC-82" value="" style="endArrow=none;html=1;rounded=0;" parent="1" edge="1">
          <mxGeometry width="50" height="50" relative="1" as="geometry">
            <mxPoint x="217" y="1365" as="sourcePoint" />
            <mxPoint x="217" y="1355" as="targetPoint" />
            <Array as="points">
              <mxPoint x="215" y="1365" />
              <mxPoint x="215" y="1355" />
            </Array>
          </mxGeometry>
        </mxCell>
        <mxCell id="yMx2xB417AtkxRecwNmC-83" value="" style="endArrow=none;html=1;rounded=0;" parent="1" edge="1">
          <mxGeometry width="50" height="50" relative="1" as="geometry">
            <mxPoint x="222.9999999999999" y="1355" as="sourcePoint" />
            <mxPoint x="222.9999999999999" y="1365" as="targetPoint" />
            <Array as="points">
              <mxPoint x="224.9999999999999" y="1355" />
              <mxPoint x="224.9999999999999" y="1365" />
            </Array>
          </mxGeometry>
        </mxCell>
        <mxCell id="yMx2xB417AtkxRecwNmC-98" value="" style="endArrow=classic;html=1;rounded=0;verticalAlign=bottom;entryX=0.5;entryY=1;entryDx=0;entryDy=0;" parent="1" target="yMx2xB417AtkxRecwNmC-41" edge="1">
          <mxGeometry width="50" height="50" relative="1" as="geometry">
            <mxPoint x="220" y="2160" as="sourcePoint" />
            <mxPoint x="220" y="1580" as="targetPoint" />
          </mxGeometry>
        </mxCell>
        <mxCell id="yMx2xB417AtkxRecwNmC-99" value="&lt;span style=&quot;white-space: normal; font-size: medium;&quot;&gt;Infeed&lt;/span&gt;&lt;div&gt;&lt;span style=&quot;text-align: start; white-space: normal; font-size: medium;&quot;&gt;Conveyors&lt;/span&gt;&lt;br&gt;&lt;/div&gt;" style="edgeLabel;html=1;align=center;verticalAlign=bottom;resizable=0;points=[];fontFamily=Crimson Text;fontSource=https%3A%2F%2Ffonts.googleapis.com%2Fcss%3Ffamily%3DCrimson%2BText;fontSize=18;" parent="yMx2xB417AtkxRecwNmC-98" vertex="1" connectable="0">
          <mxGeometry x="-0.2445" y="-1" relative="1" as="geometry">
            <mxPoint x="59" y="47" as="offset" />
          </mxGeometry>
        </mxCell>
        <mxCell id="yMx2xB417AtkxRecwNmC-102" value="" style="endArrow=none;html=1;rounded=0;" parent="1" edge="1">
          <mxGeometry width="50" height="50" relative="1" as="geometry">
            <mxPoint x="217" y="2125" as="sourcePoint" />
            <mxPoint x="217" y="2115" as="targetPoint" />
            <Array as="points">
              <mxPoint x="215" y="2125" />
              <mxPoint x="215" y="2115" />
            </Array>
          </mxGeometry>
        </mxCell>
        <mxCell id="yMx2xB417AtkxRecwNmC-103" value="" style="endArrow=none;html=1;rounded=0;" parent="1" edge="1">
          <mxGeometry width="50" height="50" relative="1" as="geometry">
            <mxPoint x="222.9999999999999" y="2115" as="sourcePoint" />
            <mxPoint x="222.9999999999999" y="2125" as="targetPoint" />
            <Array as="points">
              <mxPoint x="224.9999999999999" y="2115" />
              <mxPoint x="224.9999999999999" y="2125" />
            </Array>
          </mxGeometry>
        </mxCell>
        <mxCell id="yMx2xB417AtkxRecwNmC-104" value="" style="endArrow=none;html=1;rounded=0;" parent="1" edge="1">
          <mxGeometry width="50" height="50" relative="1" as="geometry">
            <mxPoint x="220" y="2040" as="sourcePoint" />
            <mxPoint x="280" y="1980" as="targetPoint" />
            <Array as="points">
              <mxPoint x="260" y="2010" />
              <mxPoint x="240" y="2010" />
            </Array>
          </mxGeometry>
        </mxCell>
        <mxCell id="yMx2xB417AtkxRecwNmC-115" style="edgeStyle=orthogonalEdgeStyle;rounded=1;orthogonalLoop=1;jettySize=auto;html=1;exitX=0.999;exitY=0.667;exitDx=0;exitDy=0;entryX=0;entryY=0.5;entryDx=0;entryDy=0;exitPerimeter=0;elbow=vertical;curved=0;strokeColor=default;align=center;verticalAlign=middle;arcSize=30;fontFamily=Helvetica;fontSize=11;fontColor=default;labelBackgroundColor=default;endArrow=classic;" parent="1" source="yMx2xB417AtkxRecwNmC-105" target="yMx2xB417AtkxRecwNmC-72" edge="1">
          <mxGeometry relative="1" as="geometry" />
        </mxCell>
        <mxCell id="yMx2xB417AtkxRecwNmC-105" value="&lt;div style=&quot;line-height: 120%;&quot;&gt;Exception&lt;/div&gt;&lt;div style=&quot;line-height: 120%;&quot;&gt;Handling&lt;/div&gt;" style="rounded=0;whiteSpace=wrap;html=1;fontFamily=Crimson Text;fontSource=https%3A%2F%2Ffonts.googleapis.com%2Fcss%3Ffamily%3DCrimson%2BText;fontSize=24;spacingRight=10;align=center;" parent="1" vertex="1">
          <mxGeometry x="1045" y="1480" width="200" height="120" as="geometry" />
        </mxCell>
        <mxCell id="yMx2xB417AtkxRecwNmC-106" value="A5" style="text;html=1;align=center;verticalAlign=middle;whiteSpace=wrap;rounded=0;fontFamily=Crimson Text;fontSource=https%3A%2F%2Ffonts.googleapis.com%2Fcss%3Ffamily%3DCrimson%2BText;fontSize=16;fontStyle=0" parent="1" vertex="1">
          <mxGeometry x="1215" y="1570" width="30" height="30" as="geometry" />
        </mxCell>
        <mxCell id="yMx2xB417AtkxRecwNmC-109" style="edgeStyle=orthogonalEdgeStyle;rounded=1;orthogonalLoop=1;jettySize=auto;html=1;exitX=1;exitY=0.5;exitDx=0;exitDy=0;strokeColor=default;curved=0;align=center;verticalAlign=middle;arcSize=30;fontFamily=Helvetica;fontSize=11;fontColor=default;labelBackgroundColor=default;endArrow=classic;" parent="1" source="yMx2xB417AtkxRecwNmC-41" edge="1">
          <mxGeometry relative="1" as="geometry">
            <mxPoint x="400" y="1620" as="targetPoint" />
            <Array as="points">
              <mxPoint x="360" y="1500" />
              <mxPoint x="360" y="1620" />
              <mxPoint x="400" y="1620" />
            </Array>
          </mxGeometry>
        </mxCell>
        <mxCell id="0EllpM49SObqUhI23Tt0-1" value="Preliminary&lt;div&gt;Grouped Items&lt;/div&gt;" style="edgeLabel;html=1;align=center;verticalAlign=bottom;resizable=0;points=[];fontFamily=Crimson Text;fontSource=https://fonts.googleapis.com/css?family=Crimson+Text;fontSize=18;" vertex="1" connectable="0" parent="1">
          <mxGeometry x="280" y="1630" as="geometry" />
        </mxCell>
        <mxCell id="0EllpM49SObqUhI23Tt0-10" value="" style="endArrow=classic;html=1;rounded=0;entryX=0.5;entryY=0;entryDx=0;entryDy=0;verticalAlign=bottom;" edge="1" parent="1">
          <mxGeometry width="50" height="50" relative="1" as="geometry">
            <mxPoint x="440" y="1340" as="sourcePoint" />
            <mxPoint x="440" y="1560" as="targetPoint" />
          </mxGeometry>
        </mxCell>
        <mxCell id="0EllpM49SObqUhI23Tt0-11" value="&lt;div&gt;&lt;font size=&quot;3&quot;&gt;&lt;span style=&quot;text-wrap-mode: wrap;&quot;&gt;Classification&lt;/span&gt;&lt;/font&gt;&lt;/div&gt;&lt;div&gt;&lt;font size=&quot;3&quot;&gt;&lt;span style=&quot;text-wrap-mode: wrap;&quot;&gt;Criteria&lt;/span&gt;&lt;/font&gt;&lt;/div&gt;" style="edgeLabel;html=1;align=center;verticalAlign=bottom;resizable=0;points=[];fontFamily=Crimson Text;fontSource=https://fonts.googleapis.com/css?family=Crimson+Text;fontSize=18;labelBackgroundColor=none;" vertex="1" connectable="0" parent="0EllpM49SObqUhI23Tt0-10">
          <mxGeometry x="-0.2445" y="-1" relative="1" as="geometry">
            <mxPoint x="-49" y="-23" as="offset" />
          </mxGeometry>
        </mxCell>
        <mxCell id="0EllpM49SObqUhI23Tt0-12" value="" style="endArrow=none;html=1;rounded=0;" edge="1" parent="1">
          <mxGeometry width="50" height="50" relative="1" as="geometry">
            <mxPoint x="437" y="1365" as="sourcePoint" />
            <mxPoint x="437" y="1355" as="targetPoint" />
            <Array as="points">
              <mxPoint x="435" y="1365" />
              <mxPoint x="435" y="1355" />
            </Array>
          </mxGeometry>
        </mxCell>
        <mxCell id="0EllpM49SObqUhI23Tt0-13" value="" style="endArrow=none;html=1;rounded=0;" edge="1" parent="1">
          <mxGeometry width="50" height="50" relative="1" as="geometry">
            <mxPoint x="442.9999999999999" y="1355" as="sourcePoint" />
            <mxPoint x="442.9999999999999" y="1365" as="targetPoint" />
            <Array as="points">
              <mxPoint x="444.9999999999999" y="1355" />
              <mxPoint x="444.9999999999999" y="1365" />
            </Array>
          </mxGeometry>
        </mxCell>
        <mxCell id="0EllpM49SObqUhI23Tt0-14" value="" style="endArrow=classic;html=1;rounded=0;entryX=0.5;entryY=0;entryDx=0;entryDy=0;verticalAlign=bottom;" edge="1" parent="1">
          <mxGeometry width="50" height="50" relative="1" as="geometry">
            <mxPoint x="540" y="1340" as="sourcePoint" />
            <mxPoint x="541" y="1560" as="targetPoint" />
          </mxGeometry>
        </mxCell>
        <mxCell id="0EllpM49SObqUhI23Tt0-15" value="&lt;div&gt;Regulatory&lt;/div&gt;&lt;div&gt;Requirements&lt;/div&gt;" style="edgeLabel;html=1;align=center;verticalAlign=bottom;resizable=0;points=[];fontFamily=Crimson Text;fontSource=https%3A%2F%2Ffonts.googleapis.com%2Fcss%3Ffamily%3DCrimson%2BText;fontSize=18;labelBackgroundColor=none;" vertex="1" connectable="0" parent="0EllpM49SObqUhI23Tt0-14">
          <mxGeometry x="-0.2445" y="-1" relative="1" as="geometry">
            <mxPoint x="60" y="-23" as="offset" />
          </mxGeometry>
        </mxCell>
        <mxCell id="0EllpM49SObqUhI23Tt0-16" value="" style="endArrow=none;html=1;rounded=0;" edge="1" parent="1">
          <mxGeometry width="50" height="50" relative="1" as="geometry">
            <mxPoint x="537" y="1365" as="sourcePoint" />
            <mxPoint x="537" y="1355" as="targetPoint" />
            <Array as="points">
              <mxPoint x="535" y="1365" />
              <mxPoint x="535" y="1355" />
            </Array>
          </mxGeometry>
        </mxCell>
        <mxCell id="0EllpM49SObqUhI23Tt0-63" value="" style="endArrow=classic;html=1;rounded=1;strokeColor=default;align=center;verticalAlign=middle;arcSize=30;fontFamily=Helvetica;fontSize=11;fontColor=default;labelBackgroundColor=default;curved=0;entryX=0.25;entryY=1;entryDx=0;entryDy=0;jumpStyle=arc;jumpSize=16;" edge="1" parent="1" target="yMx2xB417AtkxRecwNmC-72">
          <mxGeometry width="50" height="50" relative="1" as="geometry">
            <mxPoint x="780" y="2160" as="sourcePoint" />
            <mxPoint x="1010" y="2090" as="targetPoint" />
            <Array as="points">
              <mxPoint x="780" y="2120" />
              <mxPoint x="1290" y="2120" />
            </Array>
          </mxGeometry>
        </mxCell>
        <mxCell id="0EllpM49SObqUhI23Tt0-17" value="" style="endArrow=none;html=1;rounded=0;" edge="1" parent="1">
          <mxGeometry width="50" height="50" relative="1" as="geometry">
            <mxPoint x="542.9999999999999" y="1355" as="sourcePoint" />
            <mxPoint x="542.9999999999999" y="1365" as="targetPoint" />
            <Array as="points">
              <mxPoint x="544.9999999999999" y="1355" />
              <mxPoint x="544.9999999999999" y="1365" />
            </Array>
          </mxGeometry>
        </mxCell>
        <mxCell id="0EllpM49SObqUhI23Tt0-19" value="3-A Sanitary&lt;div&gt;Standarts&lt;/div&gt;" style="endArrow=classicThin;html=1;rounded=0;entryX=0.5;entryY=0;entryDx=0;entryDy=0;endFill=1;endSize=18;strokeWidth=2;fontFamily=Crimson Text;fontSource=https://fonts.googleapis.com/css?family=Crimson+Text;fontSize=22;labelBackgroundColor=none;verticalAlign=bottom;" edge="1" parent="1">
          <mxGeometry x="-0.25" y="60" width="50" height="50" relative="1" as="geometry">
            <mxPoint x="880" y="260" as="sourcePoint" />
            <mxPoint x="880" y="420" as="targetPoint" />
            <mxPoint as="offset" />
          </mxGeometry>
        </mxCell>
        <mxCell id="0EllpM49SObqUhI23Tt0-21" value="" style="endArrow=none;html=1;rounded=0;" edge="1" parent="1">
          <mxGeometry width="50" height="50" relative="1" as="geometry">
            <mxPoint x="360" y="1560" as="sourcePoint" />
            <mxPoint x="330" y="1590" as="targetPoint" />
            <Array as="points">
              <mxPoint x="340" y="1575" />
              <mxPoint x="350" y="1575" />
            </Array>
          </mxGeometry>
        </mxCell>
        <mxCell id="0EllpM49SObqUhI23Tt0-26" value="" style="endArrow=none;html=1;rounded=0;" edge="1" parent="1">
          <mxGeometry width="50" height="50" relative="1" as="geometry">
            <mxPoint x="640" y="1700" as="sourcePoint" />
            <mxPoint x="610" y="1730" as="targetPoint" />
            <Array as="points">
              <mxPoint x="620" y="1715" />
              <mxPoint x="630" y="1715" />
            </Array>
          </mxGeometry>
        </mxCell>
        <mxCell id="0EllpM49SObqUhI23Tt0-27" value="Classified&lt;div&gt;Production&lt;/div&gt;" style="edgeLabel;html=1;align=center;verticalAlign=bottom;resizable=0;points=[];fontFamily=Crimson Text;fontSource=https://fonts.googleapis.com/css?family=Crimson+Text;fontSize=18;labelBackgroundColor=none;" vertex="1" connectable="0" parent="1">
          <mxGeometry x="574" y="1754" as="geometry" />
        </mxCell>
        <mxCell id="0EllpM49SObqUhI23Tt0-28" value="" style="endArrow=classic;html=1;rounded=1;verticalAlign=bottom;entryX=0.5;entryY=1;entryDx=0;entryDy=0;curved=0;" edge="1" parent="1">
          <mxGeometry width="50" height="50" relative="1" as="geometry">
            <mxPoint x="480" y="2120" as="sourcePoint" />
            <mxPoint x="440" y="1680" as="targetPoint" />
            <Array as="points">
              <mxPoint x="480" y="2080" />
              <mxPoint x="440" y="2080" />
            </Array>
          </mxGeometry>
        </mxCell>
        <mxCell id="0EllpM49SObqUhI23Tt0-29" value="&lt;div&gt;&lt;font size=&quot;3&quot;&gt;&lt;span style=&quot;text-wrap-mode: wrap;&quot;&gt;Machine&lt;/span&gt;&lt;/font&gt;&lt;/div&gt;&lt;div&gt;&lt;font size=&quot;3&quot;&gt;&lt;span style=&quot;text-wrap-mode: wrap;&quot;&gt;Vision&lt;/span&gt;&lt;/font&gt;&lt;/div&gt;" style="edgeLabel;html=1;align=center;verticalAlign=bottom;resizable=0;points=[];fontFamily=Crimson Text;fontSource=https%3A%2F%2Ffonts.googleapis.com%2Fcss%3Ffamily%3DCrimson%2BText;fontSize=18;" vertex="1" connectable="0" parent="0EllpM49SObqUhI23Tt0-28">
          <mxGeometry x="-0.2445" y="-1" relative="1" as="geometry">
            <mxPoint x="-71" y="-2" as="offset" />
          </mxGeometry>
        </mxCell>
        <mxCell id="0EllpM49SObqUhI23Tt0-32" value="" style="endArrow=none;html=1;rounded=0;" edge="1" parent="1">
          <mxGeometry width="50" height="50" relative="1" as="geometry">
            <mxPoint x="380" y="1980" as="sourcePoint" />
            <mxPoint x="440" y="2040" as="targetPoint" />
            <Array as="points">
              <mxPoint x="420" y="2010" />
              <mxPoint x="400" y="2010" />
            </Array>
          </mxGeometry>
        </mxCell>
        <mxCell id="0EllpM49SObqUhI23Tt0-33" value="" style="endArrow=classic;html=1;rounded=1;verticalAlign=bottom;entryX=0.5;entryY=1;entryDx=0;entryDy=0;curved=0;" edge="1" parent="1">
          <mxGeometry width="50" height="50" relative="1" as="geometry">
            <mxPoint x="480" y="2120" as="sourcePoint" />
            <mxPoint x="520" y="1680" as="targetPoint" />
            <Array as="points">
              <mxPoint x="480" y="2080" />
              <mxPoint x="520" y="2080" />
            </Array>
          </mxGeometry>
        </mxCell>
        <mxCell id="0EllpM49SObqUhI23Tt0-34" value="&lt;div&gt;&lt;font size=&quot;3&quot;&gt;&lt;span style=&quot;text-wrap-mode: wrap;&quot;&gt;Processing&lt;/span&gt;&lt;/font&gt;&lt;/div&gt;&lt;div&gt;&lt;font size=&quot;3&quot;&gt;&lt;span style=&quot;text-wrap-mode: wrap;&quot;&gt;Algo-s&lt;/span&gt;&lt;/font&gt;&lt;/div&gt;" style="edgeLabel;html=1;align=center;verticalAlign=bottom;resizable=0;points=[];fontFamily=Crimson Text;fontSource=https%3A%2F%2Ffonts.googleapis.com%2Fcss%3Ffamily%3DCrimson%2BText;fontSize=18;" vertex="1" connectable="0" parent="0EllpM49SObqUhI23Tt0-33">
          <mxGeometry x="-0.2445" y="-1" relative="1" as="geometry">
            <mxPoint x="49" y="1" as="offset" />
          </mxGeometry>
        </mxCell>
        <mxCell id="0EllpM49SObqUhI23Tt0-37" value="" style="endArrow=none;html=1;rounded=0;" edge="1" parent="1">
          <mxGeometry width="50" height="50" relative="1" as="geometry">
            <mxPoint x="520" y="2040" as="sourcePoint" />
            <mxPoint x="580" y="1980" as="targetPoint" />
            <Array as="points">
              <mxPoint x="560" y="2010" />
              <mxPoint x="540" y="2010" />
            </Array>
          </mxGeometry>
        </mxCell>
        <mxCell id="0EllpM49SObqUhI23Tt0-39" value="" style="endArrow=none;html=1;rounded=1;strokeColor=default;align=center;verticalAlign=middle;arcSize=30;fontFamily=Helvetica;fontSize=11;fontColor=default;labelBackgroundColor=default;curved=0;" edge="1" parent="1">
          <mxGeometry width="50" height="50" relative="1" as="geometry">
            <mxPoint x="480" y="2160" as="sourcePoint" />
            <mxPoint x="480" y="2120" as="targetPoint" />
          </mxGeometry>
        </mxCell>
        <mxCell id="0EllpM49SObqUhI23Tt0-41" value="&lt;div&gt;&lt;font size=&quot;3&quot;&gt;&lt;span style=&quot;text-wrap-mode: wrap;&quot;&gt;Detection System&lt;/span&gt;&lt;/font&gt;&lt;/div&gt;" style="edgeLabel;html=1;align=center;verticalAlign=bottom;resizable=0;points=[];fontFamily=Crimson Text;fontSource=https%3A%2F%2Ffonts.googleapis.com%2Fcss%3Ffamily%3DCrimson%2BText;fontSize=18;" vertex="1" connectable="0" parent="1">
          <mxGeometry x="430" y="2130" as="geometry" />
        </mxCell>
        <mxCell id="0EllpM49SObqUhI23Tt0-42" value="" style="endArrow=classic;html=1;rounded=0;verticalAlign=bottom;entryX=0.5;entryY=1;entryDx=0;entryDy=0;" edge="1" parent="1">
          <mxGeometry width="50" height="50" relative="1" as="geometry">
            <mxPoint x="160" y="2160" as="sourcePoint" />
            <mxPoint x="160" y="1560" as="targetPoint" />
          </mxGeometry>
        </mxCell>
        <mxCell id="0EllpM49SObqUhI23Tt0-43" value="&lt;div&gt;&lt;font size=&quot;3&quot;&gt;&lt;span style=&quot;text-wrap-mode: wrap;&quot;&gt;Basic&lt;/span&gt;&lt;/font&gt;&lt;/div&gt;&lt;div&gt;&lt;font size=&quot;3&quot;&gt;&lt;span style=&quot;text-wrap-mode: wrap;&quot;&gt;Workers&lt;/span&gt;&lt;/font&gt;&lt;/div&gt;" style="edgeLabel;html=1;align=center;verticalAlign=bottom;resizable=0;points=[];fontFamily=Crimson Text;fontSource=https%3A%2F%2Ffonts.googleapis.com%2Fcss%3Ffamily%3DCrimson%2BText;fontSize=18;" vertex="1" connectable="0" parent="0EllpM49SObqUhI23Tt0-42">
          <mxGeometry x="-0.2445" y="-1" relative="1" as="geometry">
            <mxPoint x="-61" y="47" as="offset" />
          </mxGeometry>
        </mxCell>
        <mxCell id="0EllpM49SObqUhI23Tt0-46" value="" style="endArrow=none;html=1;rounded=0;" edge="1" parent="1">
          <mxGeometry width="50" height="50" relative="1" as="geometry">
            <mxPoint x="100" y="1980" as="sourcePoint" />
            <mxPoint x="160" y="2040" as="targetPoint" />
            <Array as="points">
              <mxPoint x="140" y="2010" />
              <mxPoint x="120" y="2010" />
            </Array>
          </mxGeometry>
        </mxCell>
        <mxCell id="0EllpM49SObqUhI23Tt0-50" value="" style="endArrow=none;html=1;rounded=0;" edge="1" parent="1">
          <mxGeometry width="50" height="50" relative="1" as="geometry">
            <mxPoint x="719.5699999999999" y="2020" as="sourcePoint" />
            <mxPoint x="779.5699999999999" y="2080" as="targetPoint" />
            <Array as="points">
              <mxPoint x="759.5699999999999" y="2050" />
              <mxPoint x="739.5699999999999" y="2050" />
            </Array>
          </mxGeometry>
        </mxCell>
        <mxCell id="0EllpM49SObqUhI23Tt0-55" value="" style="endArrow=classic;html=1;rounded=0;entryX=0.5;entryY=0;entryDx=0;entryDy=0;verticalAlign=bottom;" edge="1" parent="1">
          <mxGeometry width="50" height="50" relative="1" as="geometry">
            <mxPoint x="760" y="1340" as="sourcePoint" />
            <mxPoint x="760" y="1680" as="targetPoint" />
          </mxGeometry>
        </mxCell>
        <mxCell id="0EllpM49SObqUhI23Tt0-56" value="Sorting&lt;div&gt;Logic&lt;/div&gt;" style="edgeLabel;html=1;align=center;verticalAlign=bottom;resizable=0;points=[];fontFamily=Crimson Text;fontSource=https%3A%2F%2Ffonts.googleapis.com%2Fcss%3Ffamily%3DCrimson%2BText;fontSize=18;labelBackgroundColor=none;" vertex="1" connectable="0" parent="0EllpM49SObqUhI23Tt0-55">
          <mxGeometry x="-0.2445" y="-1" relative="1" as="geometry">
            <mxPoint x="-39" y="-78" as="offset" />
          </mxGeometry>
        </mxCell>
        <mxCell id="0EllpM49SObqUhI23Tt0-57" value="" style="endArrow=none;html=1;rounded=0;" edge="1" parent="1">
          <mxGeometry width="50" height="50" relative="1" as="geometry">
            <mxPoint x="757" y="1365" as="sourcePoint" />
            <mxPoint x="757" y="1355" as="targetPoint" />
            <Array as="points">
              <mxPoint x="755" y="1365" />
              <mxPoint x="755" y="1355" />
            </Array>
          </mxGeometry>
        </mxCell>
        <mxCell id="0EllpM49SObqUhI23Tt0-58" value="" style="endArrow=none;html=1;rounded=0;" edge="1" parent="1">
          <mxGeometry width="50" height="50" relative="1" as="geometry">
            <mxPoint x="762.9999999999999" y="1355" as="sourcePoint" />
            <mxPoint x="762.9999999999999" y="1365" as="targetPoint" />
            <Array as="points">
              <mxPoint x="764.9999999999999" y="1355" />
              <mxPoint x="764.9999999999999" y="1365" />
            </Array>
          </mxGeometry>
        </mxCell>
        <mxCell id="0EllpM49SObqUhI23Tt0-59" value="" style="endArrow=classic;html=1;rounded=0;entryX=0.5;entryY=0;entryDx=0;entryDy=0;verticalAlign=bottom;" edge="1" parent="1">
          <mxGeometry width="50" height="50" relative="1" as="geometry">
            <mxPoint x="800" y="1340" as="sourcePoint" />
            <mxPoint x="800" y="1680" as="targetPoint" />
          </mxGeometry>
        </mxCell>
        <mxCell id="0EllpM49SObqUhI23Tt0-60" value="Operational&lt;div&gt;Standards&lt;br&gt;&lt;/div&gt;" style="edgeLabel;html=1;align=center;verticalAlign=bottom;resizable=0;points=[];fontFamily=Crimson Text;fontSource=https%3A%2F%2Ffonts.googleapis.com%2Fcss%3Ffamily%3DCrimson%2BText;fontSize=18;labelBackgroundColor=none;" vertex="1" connectable="0" parent="0EllpM49SObqUhI23Tt0-59">
          <mxGeometry x="-0.2445" y="-1" relative="1" as="geometry">
            <mxPoint x="51" y="-68" as="offset" />
          </mxGeometry>
        </mxCell>
        <mxCell id="0EllpM49SObqUhI23Tt0-61" value="" style="endArrow=none;html=1;rounded=0;" edge="1" parent="1">
          <mxGeometry width="50" height="50" relative="1" as="geometry">
            <mxPoint x="797" y="1365" as="sourcePoint" />
            <mxPoint x="797" y="1355" as="targetPoint" />
            <Array as="points">
              <mxPoint x="795" y="1365" />
              <mxPoint x="795" y="1355" />
            </Array>
          </mxGeometry>
        </mxCell>
        <mxCell id="0EllpM49SObqUhI23Tt0-62" value="" style="endArrow=none;html=1;rounded=0;" edge="1" parent="1">
          <mxGeometry width="50" height="50" relative="1" as="geometry">
            <mxPoint x="802.9999999999999" y="1355" as="sourcePoint" />
            <mxPoint x="802.9999999999999" y="1365" as="targetPoint" />
            <Array as="points">
              <mxPoint x="804.9999999999999" y="1355" />
              <mxPoint x="804.9999999999999" y="1365" />
            </Array>
          </mxGeometry>
        </mxCell>
        <mxCell id="0EllpM49SObqUhI23Tt0-64" value="" style="endArrow=classic;html=1;rounded=1;strokeColor=default;align=center;verticalAlign=middle;arcSize=30;fontFamily=Helvetica;fontSize=11;fontColor=default;labelBackgroundColor=default;curved=0;entryX=0.5;entryY=1;entryDx=0;entryDy=0;jumpStyle=arc;jumpSize=16;" edge="1" parent="1" target="yMx2xB417AtkxRecwNmC-72">
          <mxGeometry width="50" height="50" relative="1" as="geometry">
            <mxPoint x="160" y="2160" as="sourcePoint" />
            <mxPoint x="370" y="2090" as="targetPoint" />
            <Array as="points">
              <mxPoint x="160" y="2140" />
              <mxPoint x="1340" y="2140" />
            </Array>
          </mxGeometry>
        </mxCell>
        <mxCell id="yMx2xB417AtkxRecwNmC-108" style="edgeStyle=orthogonalEdgeStyle;rounded=1;orthogonalLoop=1;jettySize=auto;html=1;entryX=0;entryY=0.25;entryDx=0;entryDy=0;exitX=0.999;exitY=0.33;exitDx=0;exitDy=0;exitPerimeter=0;strokeColor=default;curved=0;align=center;verticalAlign=middle;arcSize=30;fontFamily=Helvetica;fontSize=11;fontColor=default;labelBackgroundColor=default;endArrow=classic;jumpStyle=arc;jumpSize=16;" parent="1" source="yMx2xB417AtkxRecwNmC-105" target="yMx2xB417AtkxRecwNmC-65" edge="1">
          <mxGeometry relative="1" as="geometry">
            <mxPoint x="1250" y="1540" as="sourcePoint" />
            <Array as="points">
              <mxPoint x="1280" y="1520" />
              <mxPoint x="1280" y="1440" />
              <mxPoint x="380" y="1440" />
              <mxPoint x="380" y="1590" />
            </Array>
          </mxGeometry>
        </mxCell>
        <mxCell id="0EllpM49SObqUhI23Tt0-65" value="" style="endArrow=none;html=1;rounded=0;" edge="1" parent="1">
          <mxGeometry width="50" height="50" relative="1" as="geometry">
            <mxPoint x="920" y="1810" as="sourcePoint" />
            <mxPoint x="890" y="1840" as="targetPoint" />
            <Array as="points">
              <mxPoint x="900" y="1825" />
              <mxPoint x="910" y="1825" />
            </Array>
          </mxGeometry>
        </mxCell>
        <mxCell id="0EllpM49SObqUhI23Tt0-66" value="Correct&lt;div&gt;Routed&lt;/div&gt;&lt;div&gt;Products&lt;/div&gt;" style="edgeLabel;html=1;align=center;verticalAlign=bottom;resizable=0;points=[];fontFamily=Crimson Text;fontSource=https://fonts.googleapis.com/css?family=Crimson+Text;fontSize=18;labelBackgroundColor=none;" vertex="1" connectable="0" parent="1">
          <mxGeometry x="840" y="1890" as="geometry">
            <mxPoint x="16" y="-4" as="offset" />
          </mxGeometry>
        </mxCell>
        <mxCell id="0EllpM49SObqUhI23Tt0-48" value="" style="endArrow=classic;html=1;rounded=0;verticalAlign=bottom;entryX=0.5;entryY=1;entryDx=0;entryDy=0;" edge="1" parent="1">
          <mxGeometry width="50" height="50" relative="1" as="geometry">
            <mxPoint x="780" y="2130" as="sourcePoint" />
            <mxPoint x="779.5699999999999" y="1800" as="targetPoint" />
          </mxGeometry>
        </mxCell>
        <mxCell id="0EllpM49SObqUhI23Tt0-49" value="&lt;div&gt;&lt;font size=&quot;3&quot;&gt;&lt;span style=&quot;text-wrap-mode: wrap;&quot;&gt;Robotic&lt;/span&gt;&lt;/font&gt;&lt;/div&gt;&lt;div&gt;&lt;font size=&quot;3&quot;&gt;&lt;span style=&quot;text-wrap-mode: wrap;&quot;&gt;Arms&lt;/span&gt;&lt;/font&gt;&lt;/div&gt;" style="edgeLabel;html=1;align=center;verticalAlign=bottom;resizable=0;points=[];fontFamily=Crimson Text;fontSource=https%3A%2F%2Ffonts.googleapis.com%2Fcss%3Ffamily%3DCrimson%2BText;fontSize=18;" vertex="1" connectable="0" parent="0EllpM49SObqUhI23Tt0-48">
          <mxGeometry x="-0.2445" y="-1" relative="1" as="geometry">
            <mxPoint x="-61" y="16" as="offset" />
          </mxGeometry>
        </mxCell>
        <mxCell id="0EllpM49SObqUhI23Tt0-67" value="" style="endArrow=classic;html=1;rounded=1;strokeColor=default;align=center;verticalAlign=middle;arcSize=30;fontFamily=Helvetica;fontSize=11;fontColor=default;labelBackgroundColor=default;curved=0;entryX=0.25;entryY=1;entryDx=0;entryDy=0;jumpStyle=arc;jumpSize=16;" edge="1" parent="1" target="yMx2xB417AtkxRecwNmC-69">
          <mxGeometry width="50" height="50" relative="1" as="geometry">
            <mxPoint x="480" y="2130" as="sourcePoint" />
            <mxPoint x="1060" y="1950" as="targetPoint" />
            <Array as="points">
              <mxPoint x="480" y="2100" />
              <mxPoint x="1010" y="2100" />
            </Array>
          </mxGeometry>
        </mxCell>
        <mxCell id="0EllpM49SObqUhI23Tt0-71" value="" style="endArrow=none;html=1;rounded=0;" edge="1" parent="1">
          <mxGeometry width="50" height="50" relative="1" as="geometry">
            <mxPoint x="1057" y="2153" as="sourcePoint" />
            <mxPoint x="1057" y="2143" as="targetPoint" />
            <Array as="points">
              <mxPoint x="1055" y="2153" />
              <mxPoint x="1055" y="2143" />
            </Array>
          </mxGeometry>
        </mxCell>
        <mxCell id="0EllpM49SObqUhI23Tt0-72" value="" style="endArrow=none;html=1;rounded=0;" edge="1" parent="1">
          <mxGeometry width="50" height="50" relative="1" as="geometry">
            <mxPoint x="1063" y="2143" as="sourcePoint" />
            <mxPoint x="1063" y="2153" as="targetPoint" />
            <Array as="points">
              <mxPoint x="1065" y="2143" />
              <mxPoint x="1065" y="2153" />
            </Array>
          </mxGeometry>
        </mxCell>
        <mxCell id="0EllpM49SObqUhI23Tt0-75" value="" style="endArrow=none;html=1;rounded=0;" edge="1" parent="1">
          <mxGeometry width="50" height="50" relative="1" as="geometry">
            <mxPoint x="1090" y="2050" as="sourcePoint" />
            <mxPoint x="1060" y="2080" as="targetPoint" />
            <Array as="points">
              <mxPoint x="1070" y="2065" />
              <mxPoint x="1080" y="2065" />
            </Array>
          </mxGeometry>
        </mxCell>
        <mxCell id="0EllpM49SObqUhI23Tt0-76" value="&lt;div&gt;&lt;font size=&quot;3&quot;&gt;&lt;span style=&quot;text-wrap-mode: wrap;&quot;&gt;RFID&lt;/span&gt;&lt;/font&gt;&lt;/div&gt;&lt;div&gt;&lt;font size=&quot;3&quot;&gt;&lt;span style=&quot;text-wrap-mode: wrap;&quot;&gt;Marker&lt;/span&gt;&lt;/font&gt;&lt;/div&gt;" style="edgeLabel;html=1;align=center;verticalAlign=bottom;resizable=0;points=[];fontFamily=Crimson Text;fontSource=https://fonts.googleapis.com/css?family=Crimson+Text;fontSize=18;" vertex="1" connectable="0" parent="1">
          <mxGeometry x="1090" y="2050" as="geometry" />
        </mxCell>
        <mxCell id="0EllpM49SObqUhI23Tt0-77" value="" style="endArrow=none;html=1;rounded=0;" edge="1" parent="1">
          <mxGeometry width="50" height="50" relative="1" as="geometry">
            <mxPoint x="1180" y="1720" as="sourcePoint" />
            <mxPoint x="1150" y="1750" as="targetPoint" />
            <Array as="points">
              <mxPoint x="1160" y="1735" />
              <mxPoint x="1170" y="1735" />
            </Array>
          </mxGeometry>
        </mxCell>
        <mxCell id="0EllpM49SObqUhI23Tt0-78" value="&lt;div&gt;Labeled&lt;/div&gt;&lt;div&gt;Products&lt;/div&gt;" style="edgeLabel;html=1;align=center;verticalAlign=bottom;resizable=0;points=[];fontFamily=Crimson Text;fontSource=https://fonts.googleapis.com/css?family=Crimson+Text;fontSize=18;labelBackgroundColor=none;" vertex="1" connectable="0" parent="1">
          <mxGeometry x="1100" y="1780" as="geometry">
            <mxPoint x="16" y="-4" as="offset" />
          </mxGeometry>
        </mxCell>
        <mxCell id="0EllpM49SObqUhI23Tt0-79" value="" style="endArrow=none;html=1;rounded=0;" edge="1" parent="1">
          <mxGeometry width="50" height="50" relative="1" as="geometry">
            <mxPoint x="1295" y="1650" as="sourcePoint" />
            <mxPoint x="1265" y="1620" as="targetPoint" />
            <Array as="points">
              <mxPoint x="1275" y="1635" />
              <mxPoint x="1285" y="1635" />
            </Array>
          </mxGeometry>
        </mxCell>
        <mxCell id="0EllpM49SObqUhI23Tt0-80" value="&lt;div&gt;Properly&lt;/div&gt;&lt;div&gt;Labeled&lt;/div&gt;&lt;div&gt;Products&lt;/div&gt;" style="edgeLabel;html=1;align=center;verticalAlign=bottom;resizable=0;points=[];fontFamily=Crimson Text;fontSource=https://fonts.googleapis.com/css?family=Crimson+Text;fontSize=18;labelBackgroundColor=none;" vertex="1" connectable="0" parent="1">
          <mxGeometry x="1310" y="1690" as="geometry">
            <mxPoint x="16" y="-4" as="offset" />
          </mxGeometry>
        </mxCell>
        <mxCell id="0EllpM49SObqUhI23Tt0-81" value="" style="endArrow=none;html=1;rounded=0;" edge="1" parent="1">
          <mxGeometry width="50" height="50" relative="1" as="geometry">
            <mxPoint x="1280" y="1480" as="sourcePoint" />
            <mxPoint x="1310" y="1450" as="targetPoint" />
            <Array as="points">
              <mxPoint x="1300" y="1465" />
              <mxPoint x="1290" y="1465" />
            </Array>
          </mxGeometry>
        </mxCell>
        <mxCell id="0EllpM49SObqUhI23Tt0-82" value="Label&lt;div&gt;Error&lt;/div&gt;&lt;div&gt;Detected&lt;/div&gt;" style="edgeLabel;html=1;align=center;verticalAlign=bottom;resizable=0;points=[];fontFamily=Crimson Text;fontSource=https://fonts.googleapis.com/css?family=Crimson+Text;fontSize=18;labelBackgroundColor=none;" vertex="1" connectable="0" parent="1">
          <mxGeometry x="1330" y="1480" as="geometry">
            <mxPoint x="16" y="-4" as="offset" />
          </mxGeometry>
        </mxCell>
        <mxCell id="0EllpM49SObqUhI23Tt0-83" value="Defective Products" style="edgeLabel;html=1;align=center;verticalAlign=bottom;resizable=0;points=[];fontFamily=Crimson Text;fontSource=https://fonts.googleapis.com/css?family=Crimson+Text;fontSize=18;labelBackgroundColor=none;" vertex="1" connectable="0" parent="1">
          <mxGeometry x="1510" y="1540" as="geometry">
            <mxPoint x="16" y="-4" as="offset" />
          </mxGeometry>
        </mxCell>
        <mxCell id="0EllpM49SObqUhI23Tt0-84" value="" style="endArrow=classic;html=1;rounded=1;strokeColor=default;align=center;verticalAlign=middle;arcSize=30;fontFamily=Helvetica;fontSize=11;fontColor=default;labelBackgroundColor=default;curved=0;entryX=0.81;entryY=0.983;entryDx=0;entryDy=0;jumpStyle=arc;jumpSize=16;entryPerimeter=0;" edge="1" parent="1" target="yMx2xB417AtkxRecwNmC-105">
          <mxGeometry width="50" height="50" relative="1" as="geometry">
            <mxPoint x="1000" y="2100" as="sourcePoint" />
            <mxPoint x="1120" y="1610" as="targetPoint" />
            <Array as="points">
              <mxPoint x="1210" y="2100" />
            </Array>
          </mxGeometry>
        </mxCell>
        <mxCell id="0EllpM49SObqUhI23Tt0-85" value="" style="endArrow=classic;html=1;rounded=1;strokeColor=default;align=center;verticalAlign=middle;arcSize=30;fontFamily=Helvetica;fontSize=11;fontColor=default;labelBackgroundColor=default;curved=0;" edge="1" parent="1">
          <mxGeometry width="50" height="50" relative="1" as="geometry">
            <mxPoint x="920" y="1910" as="sourcePoint" />
            <mxPoint x="970" y="1860" as="targetPoint" />
          </mxGeometry>
        </mxCell>
        <mxCell id="0EllpM49SObqUhI23Tt0-86" value="" style="endArrow=classic;html=1;rounded=1;strokeColor=default;align=center;verticalAlign=middle;arcSize=30;fontFamily=Helvetica;fontSize=11;fontColor=default;labelBackgroundColor=default;curved=0;entryX=0.25;entryY=1;entryDx=0;entryDy=0;jumpStyle=arc;jumpSize=16;" edge="1" parent="1" target="yMx2xB417AtkxRecwNmC-105">
          <mxGeometry width="50" height="50" relative="1" as="geometry">
            <mxPoint x="780" y="2040" as="sourcePoint" />
            <mxPoint x="1110" y="1660" as="targetPoint" />
            <Array as="points">
              <mxPoint x="780" y="1980" />
              <mxPoint x="1190" y="1980" />
              <mxPoint x="1190" y="1660" />
              <mxPoint x="1095" y="1660" />
            </Array>
          </mxGeometry>
        </mxCell>
        <mxCell id="0EllpM49SObqUhI23Tt0-87" value="" style="endArrow=classic;html=1;rounded=1;strokeColor=default;align=center;verticalAlign=middle;arcSize=30;fontFamily=Helvetica;fontSize=11;fontColor=default;labelBackgroundColor=default;curved=0;entryX=0.8;entryY=0;entryDx=0;entryDy=0;entryPerimeter=0;" edge="1" parent="1" target="yMx2xB417AtkxRecwNmC-72">
          <mxGeometry width="50" height="50" relative="1" as="geometry">
            <mxPoint x="1400" y="1350" as="sourcePoint" />
            <mxPoint x="1260" y="1710" as="targetPoint" />
          </mxGeometry>
        </mxCell>
        <mxCell id="0EllpM49SObqUhI23Tt0-89" value="" style="endArrow=none;html=1;rounded=0;" edge="1" parent="1">
          <mxGeometry width="50" height="50" relative="1" as="geometry">
            <mxPoint x="1397" y="1365" as="sourcePoint" />
            <mxPoint x="1397" y="1355" as="targetPoint" />
            <Array as="points">
              <mxPoint x="1395" y="1365" />
              <mxPoint x="1395" y="1355" />
            </Array>
          </mxGeometry>
        </mxCell>
        <mxCell id="0EllpM49SObqUhI23Tt0-90" value="" style="endArrow=none;html=1;rounded=0;" edge="1" parent="1">
          <mxGeometry width="50" height="50" relative="1" as="geometry">
            <mxPoint x="1403" y="1355" as="sourcePoint" />
            <mxPoint x="1403" y="1365" as="targetPoint" />
            <Array as="points">
              <mxPoint x="1405" y="1355" />
              <mxPoint x="1405" y="1365" />
            </Array>
          </mxGeometry>
        </mxCell>
        <mxCell id="0EllpM49SObqUhI23Tt0-92" value="Operational&lt;div&gt;Standards&lt;br&gt;&lt;/div&gt;" style="edgeLabel;html=1;align=center;verticalAlign=bottom;resizable=0;points=[];fontFamily=Crimson Text;fontSource=https%3A%2F%2Ffonts.googleapis.com%2Fcss%3Ffamily%3DCrimson%2BText;fontSize=18;labelBackgroundColor=none;" vertex="1" connectable="0" parent="1">
          <mxGeometry x="1450" y="1400" as="geometry" />
        </mxCell>
        <mxCell id="0EllpM49SObqUhI23Tt0-38" style="edgeStyle=none;shape=connector;curved=0;rounded=1;orthogonalLoop=1;jettySize=auto;html=1;exitX=1;exitY=0.5;exitDx=0;exitDy=0;strokeColor=default;align=center;verticalAlign=middle;arcSize=30;fontFamily=Helvetica;fontSize=11;fontColor=default;labelBackgroundColor=default;endArrow=classic;jumpStyle=arc;jumpSize=16;" edge="1" parent="1" source="yMx2xB417AtkxRecwNmC-105">
          <mxGeometry relative="1" as="geometry">
            <mxPoint x="1600" y="1540" as="targetPoint" />
          </mxGeometry>
        </mxCell>
        <mxCell id="0EllpM49SObqUhI23Tt0-93" value="Palletized Batches&amp;nbsp;" style="edgeLabel;html=1;align=center;verticalAlign=bottom;resizable=0;points=[];fontFamily=Crimson Text;fontSource=https://fonts.googleapis.com/css?family=Crimson+Text;fontSize=18;labelBackgroundColor=none;" vertex="1" connectable="0" parent="1">
          <mxGeometry x="1510" y="2020" as="geometry">
            <mxPoint x="16" y="-4" as="offset" />
          </mxGeometry>
        </mxCell>
      </root>
    </mxGraphModel>
  </diagram>
</mxfile>
